<?xml version="1.0" encoding="utf-8"?>
<svg version="1.1" id="Capa_1" x="0px" y="0px" viewBox="0 0 472.143 472.143" style="enable-background:new 0 0 472.143 472.143;" xmlns="http://www.w3.org/2000/svg">
  <g>
    <path style="fill:#020202;" d="M 37.4 316.68 L 37.4 72.279 C 37.4 70.713 38.676 69.444 40.235 69.444 L 400.36 69.444 C 401.919 69.444 403.195 70.713 403.195 72.279 L 403.35 106.16 L 438.963 106.249 L 439.025 72.279 C 439.025 50.962 421.687 33.616 400.36 33.616 L 40.235 33.616 C 18.908 33.616 1.572 50.962 1.572 72.279 L 1.572 316.68 C 1.572 337.996 18.908 355.343 40.235 355.343 L 160.963 355.343 L 160.963 402.7 L 141.93 402.7 C 132.029 402.7 124.015 410.722 124.015 420.614 C 124.015 430.508 132.029 438.528 141.93 438.528 L 213.924 438.528 L 213.924 402.7 L 213.924 337.428 L 213.924 319.513 L 40.235 319.513 C 38.676 319.513 37.4 318.246 37.4 316.68 Z"/>
    <path style="fill: rgb(2, 2, 2); stroke-width: 2px;" d="M 428.621 120.824 L 272.185 120.824 C 249.057 120.824 230.233 139.64 230.233 162.776 L 230.233 396.575 C 230.233 419.712 249.058 438.528 272.185 438.528 L 428.621 438.528 C 451.751 438.528 470.572 419.712 470.572 396.575 L 470.572 162.776 C 470.572 139.64 451.751 120.824 428.621 120.824 Z M 266.062 162.776 C 266.062 159.401 268.809 156.653 272.185 156.653 L 428.621 156.653 C 431.997 156.653 434.745 159.401 434.745 162.776 L 434.745 379.91 L 266.062 379.91 L 266.062 162.776 Z M 350.403 422.521 C 344.752 422.521 339.976 419.205 337.58 414.499 C 336.566 412.515 335.847 410.354 335.847 407.965 C 335.847 399.924 342.356 393.411 350.403 393.411 C 358.434 393.411 364.957 399.924 364.957 407.965 C 364.957 410.353 364.24 412.514 363.226 414.499 C 360.813 419.205 356.055 422.521 350.403 422.521 Z"/>
  </g>
</svg>