<?xml version="1.0" encoding="utf-8"?>
<svg viewBox="0 0 496 483.6" xmlns="http://www.w3.org/2000/svg">
  <path d="M 165.9 389.396 C 165.9 391.396 163.6 392.996 160.7 392.996 C 157.4 393.296 155.1 391.696 155.1 389.396 C 155.1 387.396 157.4 385.796 160.3 385.796 C 163.3 385.496 165.9 387.096 165.9 389.396 Z M 134.8 384.896 C 134.1 386.896 136.1 389.196 139.1 389.796 C 141.7 390.796 144.7 389.796 145.3 387.796 C 145.9 385.796 144 383.496 141 382.596 C 138.4 381.896 135.5 382.896 134.8 384.896 Z M 179 383.196 C 176.1 383.896 174.1 385.796 174.4 388.096 C 174.7 390.096 177.3 391.396 180.3 390.696 C 183.2 389.996 185.2 388.096 184.9 386.096 C 184.6 384.196 181.9 382.896 179 383.196 Z M 244.8 -0.004 C 106.1 -0.004 0 105.296 0 243.996 C 0 354.896 69.8 449.796 169.5 483.196 C 182.3 485.496 186.8 477.596 186.8 471.096 C 186.8 464.896 186.5 430.696 186.5 409.696 C 186.5 409.696 116.5 424.696 101.8 379.896 C 101.8 379.896 90.4 350.796 74 343.296 C 74 343.296 51.1 327.596 75.6 327.896 C 75.6 327.896 100.5 329.896 114.2 353.696 C 136.1 392.296 172.8 381.196 187.1 374.596 C 189.4 358.596 195.9 347.496 203.1 340.896 C 147.2 334.696 90.8 326.596 90.8 230.396 C 90.8 202.896 98.4 189.096 114.4 171.496 C 111.8 164.996 103.3 138.196 117 103.596 C 137.9 97.096 186 130.596 186 130.596 C 206 124.996 227.5 122.096 248.8 122.096 C 270.1 122.096 291.6 124.996 311.6 130.596 C 311.6 130.596 359.7 96.996 380.6 103.596 C 394.3 138.296 385.8 164.996 383.2 171.496 C 399.2 189.196 409 202.996 409 230.396 C 409 326.896 350.1 334.596 294.2 340.896 C 303.4 348.796 311.2 363.796 311.2 387.296 C 311.2 420.996 310.9 462.696 310.9 470.896 C 310.9 477.396 315.5 485.296 328.2 482.996 C 428.2 449.796 496 354.896 496 243.996 C 496 105.296 383.5 -0.004 244.8 -0.004 Z M 97.2 344.896 C 95.9 345.896 96.2 348.196 97.9 350.096 C 99.5 351.696 101.8 352.396 103.1 351.096 C 104.4 350.096 104.1 347.796 102.4 345.896 C 100.8 344.296 98.5 343.596 97.2 344.896 Z M 86.4 336.796 C 85.7 338.096 86.7 339.696 88.7 340.696 C 90.3 341.696 92.3 341.396 93 339.996 C 93.7 338.696 92.7 337.096 90.7 336.096 C 88.7 335.496 87.1 335.796 86.4 336.796 Z M 118.8 372.396 C 117.2 373.696 117.8 376.696 120.1 378.596 C 122.4 380.896 125.3 381.196 126.6 379.596 C 127.9 378.296 127.3 375.296 125.3 373.396 C 123.1 371.096 120.1 370.796 118.8 372.396 Z M 107.4 357.696 C 105.8 358.696 105.8 361.296 107.4 363.596 C 109 365.896 111.7 366.896 113 365.896 C 114.6 364.596 114.6 361.996 113 359.696 C 111.6 357.396 109 356.396 107.4 357.696 Z"/>
</svg>