<?xml version="1.0" encoding="utf-8"?>
<svg viewBox="0 0 13.65 16.2" version="1.1" xmlns="http://www.w3.org/2000/svg">
  <path d="M 13.364 12.625 C 13.119 13.191 12.829 13.712 12.493 14.191 C 12.035 14.844 11.66 15.296 11.371 15.547 C 10.922 15.959 10.442 16.17 9.928 16.182 C 9.559 16.182 9.114 16.077 8.596 15.864 C 8.076 15.652 7.598 15.547 7.161 15.547 C 6.703 15.547 6.212 15.652 5.686 15.864 C 5.16 16.077 4.736 16.188 4.412 16.199 C 3.919 16.22 3.427 16.003 2.937 15.547 C 2.624 15.274 2.232 14.806 1.763 14.143 C 1.259 13.435 0.845 12.614 0.521 11.678 C 0.174 10.667 0 9.688 0 8.74 C 0 7.654 0.235 6.718 0.705 5.933 C 1.074 5.303 1.566 4.806 2.181 4.441 C 2.796 4.076 3.46 3.89 4.176 3.878 C 4.568 3.878 5.081 3.999 5.719 4.237 C 6.356 4.476 6.764 4.597 6.944 4.597 C 7.078 4.597 7.531 4.455 8.301 4.173 C 9.029 3.911 9.643 3.803 10.146 3.845 C 11.509 3.955 12.534 4.493 13.215 5.461 C 11.996 6.199 11.392 7.234 11.404 8.561 C 11.415 9.594 11.791 10.454 12.528 11.137 C 12.862 11.454 13.235 11.699 13.65 11.873 C 13.56 12.134 13.465 12.384 13.364 12.624 Z M 10.237 0.324 C 10.237 1.134 9.941 1.89 9.351 2.591 C 8.639 3.423 7.777 3.904 6.843 3.828 C 6.831 3.731 6.824 3.629 6.824 3.521 C 6.824 2.743 7.163 1.911 7.764 1.23 C 8.065 0.886 8.447 0.599 8.91 0.371 C 9.372 0.146 9.809 0.021 10.22 0 C 10.232 0.108 10.237 0.216 10.237 0.324 Z" style="fill: rgb(255, 255, 255);"/>
</svg>