<?xml version="1.0" encoding="utf-8"?>
<svg viewBox="0 0 480.4 493.423" version="1.1" xmlns="http://www.w3.org/2000/svg">
  <g transform="matrix(1, 0, 0, 1, -6.511992, -0.000002)">
    <path d="M 168.839 241.198 C 168.839 203.081 186.733 169.148 214.524 147.302 L 171.988 79.22 C 136.34 104.823 109.516 141.88 96.861 185.016 C 116.672 197.767 129.81 220.047 129.81 245.369 C 129.81 269.793 117.667 291.326 99.027 304.287 C 112.633 345.147 139.147 380.125 173.733 404.4 L 213.292 334.042 C 186.187 312.204 168.839 278.724 168.839 241.198 Z" style="fill: rgb(255, 255, 255);"/>
    <path d="M 109.704 245.368 C 109.704 273.852 86.572 296.96 58.095 296.96 C 29.604 296.96 6.489 273.853 6.489 245.368 C 6.489 216.898 29.604 193.791 58.095 193.791 C 86.572 193.791 109.704 216.898 109.704 245.368 Z" style="fill: rgb(255, 255, 255);"/>
    <path d="M 399.494 370.126 C 411.496 370.126 422.795 373.062 432.724 378.275 C 463.648 345.684 483.63 302.68 486.935 255.047 L 406.787 253.496 C 400.616 313.607 349.833 360.437 288.11 360.437 C 271.026 360.437 254.722 356.843 240.009 350.344 L 200.168 420.048 C 226.728 433.117 256.544 440.459 288.109 440.459 C 301.731 440.459 315.09 439.08 327.963 436.453 C 330.709 399.381 361.68 370.126 399.494 370.126 Z" style="fill: rgb(255, 255, 255);"/>
    <path d="M 451.071 441.847 C 451.071 470.325 427.987 493.423 399.494 493.423 C 371.001 493.423 347.9 470.325 347.9 441.847 C 347.9 413.347 371.001 390.255 399.494 390.255 C 427.987 390.255 451.071 413.347 451.071 441.847 Z" style="fill: rgb(255, 255, 255);"/>
    <path d="M 438.211 110.152 C 426.534 118.421 412.243 123.315 396.812 123.315 C 357.175 123.315 325.082 91.213 325.082 51.6 C 325.082 49.496 325.176 47.461 325.332 45.419 C 313.282 43.112 300.829 41.928 288.11 41.928 C 256.251 41.928 226.122 49.426 199.421 62.705 L 239.028 132.455 C 254.007 125.707 270.621 121.911 288.11 121.911 C 349.287 121.911 399.711 167.985 406.601 227.325 L 486.748 224.878 C 483.209 181.12 465.487 141.372 438.211 110.152 Z" style="fill: rgb(255, 255, 255);"/>
    <path d="M 448.374 51.601 C 448.374 80.093 425.336 103.193 396.813 103.193 C 368.322 103.193 345.221 80.093 345.221 51.601 C 345.22 23.107 368.321 0 396.812 0 C 425.335 0 448.374 23.107 448.374 51.601 Z" style="fill: rgb(255, 255, 255);"/>
  </g>
</svg>